<svg width="197" height="92" viewBox="0 0 197 92" fill="none" xmlns="http://www.w3.org/2000/svg">
<path d="M0 3.59579L3.55098 0H21.9679V7.13165H7.16215V18.3385H17.3938V25.4702H7.16215V43.7488H0V3.59579Z" fill="#FA9500"/>
<path d="M27.3753 43.7488V0H34.5374V43.7488H27.3753Z" fill="#FA9500"/>
<path d="M47.1013 0V36.6171H61.9071V43.7488H43.4901L39.9391 40.2129V0H47.1013Z" fill="#FA9500"/>
<path d="M67.3144 43.7488V0H74.4766V43.7488H67.3144Z" fill="#FA9500"/>
<path d="M92.6377 0C98.4156 0 103.11 4.67453 103.11 10.4278V14.9825C103.11 20.7957 98.4156 25.4702 92.6377 25.4702H87.0404V43.7488H79.8783V3.59579L83.4293 0H92.6377ZM95.948 14.9825V10.4278C95.948 8.6299 94.5035 7.13165 92.6377 7.13165H87.0404V18.3385H92.6377C94.5035 18.3385 95.948 16.8403 95.948 14.9825Z" fill="#FA9500"/>
<path d="M108.547 43.7488V0H115.709V43.7488H108.547Z" fill="#FA9500"/>
<path d="M17.3938 60.7166L28.2875 46.2136L34.7274 48.3711V92H27.5652V59.0386L20.2225 68.8071H14.5049L7.16215 59.0386V92H0V48.3711L6.43992 46.2136L17.3938 60.7166Z" fill="#FA9500"/>
<path d="M55.1761 48.2512C60.954 48.2512 65.6485 52.9257 65.6485 58.679V92H58.4863V73.7214H47.2917V92H40.1296V58.679C40.1296 52.9257 44.8241 48.2512 50.602 48.2512H55.1761ZM47.2917 66.5897H58.4863V58.679C58.4863 56.8811 57.0419 55.3829 55.1761 55.3829H50.602C48.7362 55.3829 47.2917 56.8811 47.2917 58.679V66.5897Z" fill="#FA9500"/>
<path d="M89.808 71.8636L95.8267 79.3548L96.6091 81.5722V92H89.4469V82.8307L82.1644 73.7214H78.2523V92H71.0902V51.847L74.6411 48.2512H83.8496C89.6275 48.2512 94.322 52.9257 94.322 58.679V63.2337C94.322 66.8295 92.5164 69.9458 89.808 71.8636ZM78.2523 55.3829V66.5897H83.8496C85.7154 66.5897 87.1599 65.0915 87.1599 63.2337V58.679C87.1599 56.8811 85.7154 55.3829 83.8496 55.3829H78.2523Z" fill="#FA9500"/>
<path d="M102.051 55.3829V48.2512H122.514V55.3829H115.954V92H108.792V55.3829H102.051Z" fill="#FA9500"/>
<path d="M127.957 92V48.2512H135.119V92H127.957Z" fill="#FA9500"/>
<path d="M158.877 69.826V48.2512H166.039V92H161.947L147.683 63.3535V92H140.52V48.2512L147.261 46.693L158.877 69.826Z" fill="#FA9500"/>
<path d="M191.222 69.6462C194.532 71.2643 197 75.2796 197 78.9353V81.5722C197 87.3255 192.305 92 186.528 92H181.953C176.176 92 171.481 87.3255 171.481 81.5722V79.2949H178.643V81.5722C178.643 83.43 180.088 84.8683 181.953 84.8683H186.528C188.393 84.8683 189.838 83.43 189.838 81.5722V78.9353C189.838 77.9764 188.935 76.4182 188.032 75.9987L177.259 70.665C173.949 68.9869 171.481 64.9716 171.481 61.3159V58.679C171.481 52.9257 176.176 48.2512 181.953 48.2512H184.481C190.259 48.2512 194.954 52.9257 194.954 58.679V60.9563H187.792V58.679C187.792 56.8811 186.347 55.3829 184.481 55.3829H181.953C180.088 55.3829 178.643 56.8811 178.643 58.679V61.3159C178.643 62.3347 179.606 63.833 180.449 64.2525L191.222 69.6462Z" fill="#FA9500"/>
</svg>
